<?xml version="1.0" encoding="UTF-8"?>
<!-- Generator: visioncortex VTracer 0.6.12 -->
<svg version="1.1" xmlns="http://www.w3.org/2000/svg" width="512" height="512">
<path d="M0 0 C0.702 -0.002 1.405 -0.004 2.128 -0.006 C4.481 -0.012 6.834 -0.01 9.187 -0.009 C10.892 -0.012 12.596 -0.015 14.3 -0.018 C18.984 -0.026 23.667 -0.028 28.351 -0.029 C33.402 -0.03 38.454 -0.038 43.505 -0.045 C54.55 -0.058 65.596 -0.064 76.641 -0.069 C83.539 -0.072 90.437 -0.076 97.335 -0.08 C116.436 -0.092 135.537 -0.103 154.637 -0.106 C155.249 -0.106 155.249 -0.106 158.342 -0.107 C159.567 -0.107 160.792 -0.107 162.054 -0.107 C164.537 -0.108 167.02 -0.108 169.503 -0.109 C170.119 -0.109 170.119 -0.109 173.235 -0.109 C193.189 -0.113 213.142 -0.131 233.096 -0.154 C253.586 -0.178 274.075 -0.19 294.565 -0.192 C306.068 -0.192 317.57 -0.198 329.073 -0.216 C338.868 -0.232 348.664 -0.237 358.459 -0.229 C363.455 -0.225 368.451 -0.226 373.447 -0.24 C378.025 -0.252 382.603 -0.251 387.182 -0.239 C388.833 -0.237 390.484 -0.24 392.136 -0.249 C408.767 -0.331 419.862 2.522 432.83 13.131 C433.49 13.461 434.15 13.791 434.83 14.131 C435.16 15.121 435.49 16.111 435.83 17.131 C436.325 17.585 436.82 18.039 437.33 18.506 C439.281 20.621 439.408 22.323 439.83 25.131 C440.16 26.121 440.49 27.111 440.83 28.131 C441.16 28.131 441.49 28.131 441.83 28.131 C442.688 32.583 442.955 36.788 442.955 41.319 C442.957 42.023 442.958 42.727 442.96 43.452 C442.964 45.811 442.96 48.17 442.957 50.53 C442.958 52.238 442.959 53.947 442.961 55.655 C442.966 60.35 442.963 65.046 442.96 69.741 C442.958 74.804 442.962 79.868 442.964 84.931 C442.969 94.85 442.968 104.77 442.965 114.689 C442.963 122.75 442.962 130.81 442.963 138.87 C442.964 140.017 442.964 141.163 442.964 142.345 C442.964 144.673 442.965 147.002 442.965 149.331 C442.968 171.178 442.964 193.024 442.959 214.871 C442.955 233.624 442.955 252.376 442.96 271.128 C442.965 292.896 442.967 314.664 442.964 336.431 C442.964 338.752 442.964 341.072 442.963 343.392 C442.963 344.534 442.963 345.676 442.963 346.852 C442.962 354.905 442.964 362.957 442.966 371.009 C442.969 380.82 442.968 390.631 442.963 400.442 C442.96 405.449 442.959 410.456 442.962 415.464 C442.965 420.045 442.964 424.627 442.958 429.209 C442.957 430.868 442.958 432.528 442.96 434.187 C442.963 436.439 442.96 438.692 442.955 440.944 C442.955 442.196 442.955 443.449 442.955 444.739 C442.836 447.958 442.439 450.971 441.83 454.131 C441.17 454.131 440.51 454.131 439.83 454.131 C439.861 454.575 439.861 454.575 440.017 456.819 C439.808 460.51 439.011 462.195 436.83 465.131 C436.17 465.461 435.51 465.791 434.83 466.131 C434.5 467.121 434.17 468.111 433.83 469.131 C432.519 469.841 431.181 470.501 429.83 471.131 C428.393 472.252 426.977 473.4 425.58 474.569 C417.714 480.781 409.561 482.253 399.659 482.263 C398.957 482.265 398.255 482.267 397.531 482.269 C395.178 482.275 392.825 482.273 390.472 482.272 C388.768 482.274 387.063 482.277 385.359 482.281 C380.675 482.289 375.992 482.291 371.308 482.291 C366.257 482.293 361.206 482.301 356.154 482.308 C345.109 482.321 334.063 482.327 323.018 482.332 C316.12 482.334 309.222 482.339 302.324 482.343 C283.223 482.355 264.123 482.366 245.022 482.369 C244.411 482.369 244.411 482.369 241.318 482.37 C240.093 482.37 238.867 482.37 237.605 482.37 C235.122 482.371 232.639 482.371 230.156 482.372 C228.925 482.372 227.693 482.372 226.424 482.372 C206.471 482.376 186.517 482.394 166.563 482.417 C146.074 482.441 125.584 482.453 105.094 482.454 C93.592 482.455 82.089 482.461 70.586 482.479 C60.791 482.495 50.996 482.5 41.2 482.491 C36.204 482.488 31.209 482.488 26.213 482.503 C21.634 482.515 17.056 482.514 12.478 482.502 C10.826 482.5 9.175 482.503 7.523 482.512 C-9.108 482.594 -20.203 479.741 -33.17 469.131 C-33.83 468.801 -34.49 468.471 -35.17 468.131 C-35.335 467.636 -35.335 467.636 -36.17 465.131 C-36.418 464.905 -36.418 464.905 -37.67 463.756 C-39.622 461.642 -39.749 459.94 -40.17 457.131 C-40.335 456.636 -40.335 456.636 -41.17 454.131 C-41.5 454.131 -41.83 454.131 -42.17 454.131 C-43.029 449.68 -43.296 445.475 -43.296 440.944 C-43.298 440.24 -43.299 439.536 -43.301 438.811 C-43.304 436.451 -43.301 434.092 -43.297 431.733 C-43.298 430.025 -43.3 428.316 -43.302 426.608 C-43.306 421.912 -43.304 417.217 -43.301 412.522 C-43.299 407.459 -43.302 402.395 -43.305 397.332 C-43.31 387.412 -43.309 377.493 -43.306 367.574 C-43.303 359.513 -43.303 351.453 -43.304 343.392 C-43.304 342.246 -43.304 341.1 -43.305 339.918 C-43.305 337.589 -43.305 335.261 -43.306 332.932 C-43.308 311.085 -43.305 289.238 -43.3 267.392 C-43.295 248.639 -43.296 229.887 -43.301 211.134 C-43.306 189.367 -43.308 167.599 -43.305 145.832 C-43.305 143.511 -43.304 141.191 -43.304 138.87 C-43.304 137.729 -43.304 136.587 -43.304 135.411 C-43.303 127.358 -43.304 119.306 -43.307 111.254 C-43.309 101.443 -43.309 91.632 -43.303 81.821 C-43.301 76.814 -43.3 71.807 -43.303 66.799 C-43.306 62.218 -43.304 57.636 -43.299 53.054 C-43.298 51.395 -43.299 49.735 -43.301 48.076 C-43.304 45.823 -43.301 43.571 -43.296 41.319 C-43.296 40.066 -43.296 38.814 -43.296 37.524 C-43.177 34.305 -42.78 31.292 -42.17 28.131 C-41.51 28.131 -40.85 28.131 -40.17 28.131 C-40.232 27.245 -40.294 26.358 -40.358 25.444 C-40.149 21.753 -39.352 20.068 -37.17 17.131 C-36.51 16.801 -35.85 16.471 -35.17 16.131 C-34.84 15.141 -34.51 14.151 -34.17 13.131 C-32.859 12.422 -31.521 11.761 -30.17 11.131 C-28.734 10.011 -27.318 8.863 -25.92 7.694 C-18.055 1.482 -9.901 0.01 0 0 Z M-39.17 23.131 C-38.17 25.131 -38.17 25.131 -38.17 25.131 Z M437.83 23.131 C438.83 25.131 438.83 25.131 438.83 25.131 Z M-42.17 35.131 C-42.17 171.091 -42.17 307.051 -42.17 447.131 C-41.84 447.131 -41.51 447.131 -41.17 447.131 C-41.17 311.171 -41.17 175.211 -41.17 35.131 C-41.5 35.131 -41.83 35.131 -42.17 35.131 Z M440.83 35.131 C440.83 171.091 440.83 307.051 440.83 447.131 C441.16 447.131 441.49 447.131 441.83 447.131 C441.83 311.171 441.83 175.211 441.83 35.131 C441.5 35.131 441.17 35.131 440.83 35.131 Z M-39.17 457.131 C-38.17 459.131 -38.17 459.131 -38.17 459.131 Z M437.83 457.131 C438.83 459.131 438.83 459.131 438.83 459.131 Z " fill="#1A1A1A" transform="translate(56.170358657836914,14.868572235107422)"/>
<path d="M0 0 C3.519 1.569 5.789 4.238 8.284 7.081 C8.548 7.38 8.548 7.38 9.885 8.895 C10.914 10.076 11.936 11.264 12.95 12.459 C13.992 13.677 15.076 14.859 16.175 16.026 C21.886 23.083 19.846 34.282 19.018 42.729 C17.204 50.599 9.8 56.51 4.284 62.018 C3.587 62.716 2.891 63.415 2.173 64.134 C-3.765 70.08 -3.765 70.08 -6.664 72.93 C-10.661 76.875 -14.446 80.923 -18.111 85.177 C-20.329 87.721 -22.651 90.122 -25.029 92.518 C-25.87 93.374 -26.712 94.23 -27.579 95.112 C-29.716 97.018 -29.716 97.018 -31.716 97.018 C-31.842 97.307 -31.842 97.307 -32.476 98.765 C-33.882 101.321 -35.479 103.014 -37.552 105.065 C-38.339 105.849 -39.127 106.634 -39.939 107.442 C-40.791 108.281 -41.643 109.119 -42.521 109.983 C-43.396 110.853 -44.272 111.724 -45.174 112.62 C-47.5 114.932 -49.83 117.239 -52.163 119.544 C-55.442 122.785 -58.716 126.031 -61.987 129.28 C-63.727 131.008 -65.47 132.734 -67.216 134.456 C-68.01 135.243 -68.804 136.031 -69.622 136.842 C-70.318 137.53 -71.013 138.217 -71.73 138.925 C-73.716 141.018 -73.716 141.018 -75.833 143.678 C-79.011 147.627 -83.321 149.615 -87.716 152.018 C-88.56 152.488 -89.405 152.957 -90.275 153.44 C-102.709 160.036 -116.198 160.95 -129.779 157.05 C-139.798 153.532 -147.218 148.489 -154.716 141.018 C-155.469 140.309 -156.222 139.6 -156.997 138.87 C-158.716 137.018 -158.716 137.018 -158.716 135.018 C-158.995 134.909 -158.995 134.909 -160.404 134.354 C-163.422 132.61 -165.445 130.233 -167.716 127.643 C-171.594 123.307 -175.579 119.129 -179.74 115.061 C-180.18 114.629 -180.18 114.629 -182.411 112.444 C-184.161 110.738 -185.919 109.04 -187.685 107.351 C-194.415 100.767 -200.857 94.076 -201.279 84.268 C-200.772 76.099 -197.098 71.936 -191.165 66.632 C-185.763 61.953 -181.658 61.648 -174.712 61.757 C-168.126 62.332 -165.074 65.489 -160.962 70.225 C-154.433 77.558 -147.428 84.413 -140.466 91.331 C-139.104 92.688 -137.742 94.045 -136.38 95.403 C-130.108 101.655 -130.108 101.655 -127.255 104.478 C-125.804 105.931 -124.382 107.413 -122.963 108.898 C-120.237 111.471 -118.974 111.67 -115.279 111.581 C-108.729 111.264 -105.538 108.84 -100.966 104.268 C-100.224 103.526 -99.481 102.783 -98.716 102.018 C-98.056 102.018 -97.396 102.018 -96.716 102.018 C-96.452 101.429 -96.188 100.839 -95.916 100.231 C-94.67 97.933 -93.378 96.445 -91.523 94.614 C-90.876 93.97 -90.228 93.326 -89.561 92.662 C-88.862 91.976 -88.163 91.291 -87.443 90.585 C-86.722 89.87 -86.002 89.155 -85.26 88.418 C-82.959 86.134 -80.65 83.857 -78.341 81.581 C-76.04 79.307 -73.74 77.032 -71.443 74.754 C-70.015 73.338 -68.584 71.924 -67.149 70.514 C-64.382 67.774 -61.787 65.108 -59.37 62.045 C-58.824 61.376 -58.278 60.708 -57.716 60.018 C-57.056 60.018 -56.396 60.018 -55.716 60.018 C-55.716 59.358 -55.716 58.698 -55.716 58.018 C-54.094 56.308 -52.417 54.65 -50.716 53.018 C-49.771 52.057 -48.83 51.092 -47.892 50.124 C-46.937 49.151 -45.983 48.178 -45.029 47.206 C-44.543 46.704 -44.058 46.202 -43.558 45.684 C-42.315 44.424 -41.019 43.216 -39.716 42.018 C-39.056 42.018 -38.396 42.018 -37.716 42.018 C-37.51 41.482 -37.304 40.946 -37.091 40.393 C-35.455 37.567 -33.421 35.794 -30.958 33.678 C-29.716 32.018 -29.716 32.018 -29.997 29.816 C-29.573 25.593 -26.875 23.443 -23.986 20.589 C-23.398 19.994 -22.811 19.399 -22.205 18.787 C-20.962 17.535 -19.711 16.29 -18.455 15.051 C-16.533 13.148 -14.643 11.218 -12.753 9.284 C-11.541 8.071 -10.327 6.86 -9.111 5.651 C-8.546 5.071 -7.981 4.491 -7.399 3.893 C-3.413 0.023 -3.413 0.023 0 0 Z " fill="#979797" transform="translate(295.716064453125,223.981689453125)"/>
<path d="M0 0 C0 0.66 0 1.32 0 2 C0.703 1.924 1.405 1.848 2.129 1.77 C9.847 2.389 19.335 10.808 24.409 16.612 C24.929 17.227 25.449 17.843 25.984 18.477 C31.133 24.407 36.799 29.831 42.412 35.316 C43.83 36.704 45.241 38.098 46.652 39.492 C47.488 40.311 48.323 41.129 49.183 41.972 C51 44 51 44 51 46 C51.567 46.232 52.134 46.464 52.719 46.703 C57.382 49.354 60.567 53.956 64 58 C64.846 58.949 65.691 59.898 66.562 60.875 C69.174 66.552 69.16 72.713 67.082 78.602 C64.543 83.515 61.542 86.871 57 90 C56.34 90 55.68 90 55 90 C55 90.66 55 91.32 55 92 C51.684 93.105 49.115 93.168 45.625 93.188 C44.504 93.202 43.382 93.216 42.227 93.23 C35.82 92.773 32.419 89.86 28.043 85.406 C27.769 85.133 27.769 85.133 26.383 83.748 C25.232 82.595 24.085 81.438 22.942 80.278 C21.185 78.497 19.415 76.73 17.643 74.965 C16.525 73.842 15.409 72.718 14.293 71.594 C13.762 71.064 13.231 70.533 12.683 69.987 C9 66.231 9 66.231 9 64 C8.361 63.732 7.721 63.464 7.062 63.188 C5 62 5 62 4 59 C3.408 58.71 2.817 58.42 2.207 58.121 C-0.725 56.632 -2.224 54.588 -4.312 52.062 C-8.082 47.807 -10.436 45.292 -16 44 C-20.926 43.816 -24.788 44.35 -28.573 47.649 C-29.728 48.799 -30.862 49.971 -31.977 51.16 C-32.591 51.783 -33.205 52.407 -33.838 53.049 C-35.787 55.035 -37.705 57.048 -39.625 59.062 C-40.92 60.389 -42.217 61.714 -43.516 63.037 C-48.238 67.874 -52.918 72.717 -57.321 77.849 C-61.494 82.654 -66.029 87.062 -70.582 91.504 C-72.419 93.314 -74.256 95.124 -76.092 96.936 C-78.961 99.761 -81.832 102.584 -84.717 105.394 C-87.519 108.125 -90.3 110.877 -93.082 113.629 C-93.947 114.465 -94.811 115.3 -95.702 116.161 C-100.226 120.665 -102.579 123.641 -104 130 C-106 132.551 -106 132.551 -108.43 134.883 C-109.308 135.74 -110.185 136.597 -111.09 137.48 C-112.009 138.353 -112.928 139.226 -113.875 140.125 C-115.687 141.875 -117.497 143.628 -119.305 145.383 C-120.109 146.15 -120.913 146.917 -121.742 147.708 C-124 150 -124 150 -126.081 152.783 C-126.398 153.149 -126.398 153.149 -128 155 C-133.633 155.149 -136.573 153.305 -140.625 149.562 C-146.966 143.492 -151.572 136.417 -152.168 127.484 C-152.248 116.331 -149.999 108.98 -143 100 C-142.34 100 -141.68 100 -141 100 C-141 99.34 -141 98.68 -141 98 C-139.355 96.414 -139.355 96.414 -137.188 94.625 C-134.937 92.764 -133.096 91.131 -131.363 88.773 C-131.138 88.481 -131.138 88.481 -130 87 C-129.34 87 -128.68 87 -128 87 C-128 86.34 -128 85.68 -128 85 C-127.34 85 -126.68 85 -126 85 C-125.835 84.505 -125.835 84.505 -125 82 C-124.34 82 -123.68 82 -123 82 C-122.771 81.445 -122.542 80.891 -122.306 80.319 C-120.631 77.345 -118.532 75.301 -116.107 72.896 C-115.611 72.401 -115.115 71.906 -114.604 71.397 C-112.968 69.768 -111.326 68.146 -109.684 66.523 C-108.545 65.391 -107.407 64.258 -106.269 63.125 C-103.277 60.146 -100.279 57.172 -97.279 54.2 C-92.473 49.438 -87.674 44.668 -82.878 39.895 C-81.2 38.228 -79.519 36.564 -77.838 34.9 C-76.813 33.882 -75.788 32.864 -74.763 31.845 C-74.315 31.4 -74.315 31.4 -72.043 29.15 C-70 27 -70 27 -69 25 C-68.34 25 -67.68 25 -67 25 C-66.772 24.45 -66.544 23.899 -66.309 23.332 C-60.317 12.655 -47.321 3.841 -36 0 C-24.417 -3.097 -11.537 -3.296 0 0 Z " fill="#979797" transform="translate(353,130)"/>
<path d="M0 0 C0.757 0.007 1.514 0.015 2.294 0.023 C16.781 0.302 30.369 5.764 41.188 15.5 C42.599 17.053 44.005 18.611 45.391 20.188 C45.728 20.569 45.728 20.569 47.438 22.5 C48.193 23.355 48.948 24.209 49.727 25.09 C52.082 27.668 54.565 30.087 57.086 32.504 C57.862 33.254 58.639 34.005 59.438 34.778 C61.009 36.289 62.591 37.788 64.187 39.272 C64.911 39.973 65.636 40.673 66.383 41.395 C67.043 42.017 67.703 42.639 68.383 43.281 C69.688 45.25 69.688 45.25 69.783 47.578 C68.171 51.51 65.491 53.94 62.465 56.863 C61.845 57.478 61.225 58.092 60.586 58.725 C58.608 60.681 56.617 62.622 54.625 64.562 C53.28 65.888 51.935 67.214 50.592 68.541 C47.301 71.788 43.997 75.022 40.688 78.25 C36.886 76.679 34.497 74.29 31.625 71.383 C31.152 70.907 30.679 70.431 30.191 69.94 C28.685 68.423 27.186 66.899 25.688 65.375 C24.68 64.358 23.672 63.341 22.664 62.324 C20.806 60.45 18.951 58.572 17.098 56.692 C16.302 55.886 15.507 55.08 14.688 54.25 C13.977 53.522 13.267 52.793 12.535 52.042 C9.458 49.057 6.659 47.423 2.324 47.043 C-2.464 47.196 -5.541 47.908 -9 51.312 C-10.112 52.619 -11.215 53.932 -12.312 55.25 C-17.996 62.063 -24.228 68.284 -30.517 74.53 C-32.394 76.394 -34.268 78.262 -36.142 80.13 C-40.112 84.09 -44.087 88.045 -48.062 92 C-52.686 96.6 -57.308 101.202 -61.926 105.808 C-63.769 107.644 -65.615 109.478 -67.462 111.311 C-68.591 112.438 -69.721 113.564 -70.851 114.69 C-71.106 114.943 -71.106 114.943 -72.4 116.224 C-79.743 123.566 -79.743 123.566 -79.812 129.125 C-79.685 134.523 -77.946 136.435 -74.312 140.25 C-74.312 141.57 -74.312 142.89 -74.312 144.25 C-74.972 144.25 -75.632 144.25 -76.312 144.25 C-76.422 144.604 -76.422 144.604 -76.977 146.395 C-78.619 149.905 -80.942 152.282 -83.688 154.938 C-84.17 155.423 -84.652 155.908 -85.148 156.408 C-90.965 162.138 -95.325 162.697 -103.238 162.684 C-109.288 162.518 -112.93 161.336 -117.312 157.25 C-117.947 156.684 -118.581 156.118 -119.234 155.535 C-126.144 149.011 -129.769 141.72 -130.57 132.18 C-130.67 126.506 -130.3 121.616 -128.312 116.25 C-128.114 115.528 -127.915 114.806 -127.711 114.062 C-125.953 108.523 -123.13 104.596 -119.16 100.426 C-118.639 99.87 -118.119 99.315 -117.582 98.743 C-110.598 91.352 -103.35 84.217 -96.125 77.062 C-93.337 74.301 -90.552 71.536 -87.77 68.77 C-87.134 68.143 -86.499 67.516 -85.844 66.87 C-81.425 62.475 -81.425 62.475 -80.312 60.25 C-79.653 60.25 -78.993 60.25 -78.312 60.25 C-77.983 59.26 -77.653 58.27 -77.312 57.25 C-76.653 57.25 -75.993 57.25 -75.312 57.25 C-74.983 56.26 -74.653 55.27 -74.312 54.25 C-73.653 54.25 -72.993 54.25 -72.312 54.25 C-72.106 53.714 -71.9 53.178 -71.688 52.625 C-69.78 49.33 -67.264 46.656 -64.312 44.25 C-63.653 44.25 -62.993 44.25 -62.312 44.25 C-62.04 43.653 -61.767 43.055 -61.486 42.44 C-60.343 40.307 -59.232 38.917 -57.534 37.213 C-56.977 36.649 -56.419 36.085 -55.844 35.504 C-55.543 35.205 -55.543 35.205 -54.02 33.691 C-53.395 33.065 -52.771 32.439 -52.128 31.794 C-50.806 30.471 -49.482 29.151 -48.156 27.833 C-46.143 25.83 -44.14 23.817 -42.139 21.803 C-40.85 20.515 -39.56 19.228 -38.27 17.941 C-37.678 17.345 -37.086 16.749 -36.476 16.135 C-31.369 11.085 -26.07 6.602 -19.25 4.062 C-18.852 3.911 -18.852 3.911 -16.84 3.145 C-16.006 2.849 -15.172 2.554 -14.312 2.25 C-13.392 1.888 -12.472 1.526 -11.523 1.152 C-7.645 0.062 -3.993 -0.052 0 0 Z " fill="#B4EC18" transform="translate(181.3125,126.75)"/>
<path d="M0 0 C0 0.66 0 1.32 0 2 C0.589 2.104 1.178 2.209 1.785 2.316 C6.68 3.827 9.947 8.269 12.527 12.512 C17.449 22.055 19.097 33.207 15.875 43.688 C13.405 49.958 10.31 57.643 5 62 C4.34 62 3.68 62 3 62 C2.769 62.557 2.538 63.113 2.3 63.687 C0.649 66.624 -1.404 68.635 -3.798 71.009 C-4.284 71.494 -4.771 71.979 -5.272 72.479 C-6.878 74.079 -8.492 75.672 -10.105 77.266 C-11.23 78.384 -12.354 79.502 -13.477 80.621 C-16.437 83.568 -19.403 86.51 -22.371 89.45 C-27.104 94.14 -31.83 98.836 -36.552 103.535 C-38.193 105.166 -39.838 106.794 -41.482 108.42 C-46.335 113.234 -51.077 118.085 -55.52 123.285 C-59.088 127.42 -63.008 131.233 -66.86 135.101 C-68.373 136.623 -69.874 138.155 -71.375 139.688 C-84.387 152.841 -96.978 159.101 -115.625 159.312 C-121.952 159.296 -127.214 158.566 -133 156 C-134.333 155.562 -135.666 155.124 -137 154.688 C-149.84 149.668 -159.501 138.391 -168.164 128.035 C-171.508 124.328 -175.263 120.99 -178.938 117.613 C-181 115 -181 115 -181.164 112.531 C-179.566 109.056 -177.131 106.752 -174.375 104.188 C-173.272 103.126 -172.17 102.062 -171.07 100.996 C-170.538 100.483 -170.006 99.97 -169.458 99.441 C-167.621 97.625 -165.924 95.716 -164.25 93.75 C-161.821 90.929 -159.364 88.148 -156.812 85.438 C-156.18 84.756 -155.547 84.074 -154.895 83.371 C-153 82 -153 82 -151.1 82.214 C-148.6 83.15 -147.362 84.294 -145.504 86.203 C-144.863 86.854 -144.221 87.505 -143.561 88.176 C-142.901 88.86 -142.242 89.545 -141.562 90.25 C-141.235 90.585 -141.235 90.585 -139.576 92.277 C-138.294 93.586 -137.015 94.898 -135.74 96.214 C-134.262 97.731 -132.762 99.227 -131.258 100.719 C-128.536 103.469 -126.052 106.378 -123.551 109.328 C-121.748 111.272 -120.685 111.929 -118.047 112.203 C-117.289 112.219 -116.531 112.234 -115.75 112.25 C-115.002 112.276 -114.255 112.302 -113.484 112.328 C-105.619 111.289 -100.82 105.201 -95.562 99.812 C-94.742 98.987 -93.922 98.161 -93.076 97.311 C-89.548 93.737 -86.108 90.138 -82.837 86.328 C-78.452 81.29 -73.723 76.617 -68.98 71.918 C-68.031 70.973 -67.082 70.027 -66.133 69.082 C-63.154 66.114 -60.171 63.15 -57.188 60.188 C-54.186 57.207 -51.186 54.225 -48.189 51.24 C-46.329 49.388 -44.467 47.538 -42.603 45.691 C-41.765 44.856 -40.927 44.021 -40.063 43.161 C-39.694 42.794 -39.694 42.794 -37.826 40.939 C-36 39 -36 39 -34 36 C-33.34 36 -32.68 36 -32 36 C-32.088 34.416 -32.196 32.832 -32.312 31.25 C-32.342 30.809 -32.342 30.809 -32.488 28.578 C-33.067 25.663 -34.153 24.278 -36 22 C-36 21.34 -36 20.68 -36 20 C-36.66 20 -37.32 20 -38 20 C-38.396 16.644 -38.218 15.311 -36.242 12.5 C-26.129 1.819 -15.338 -6.977 0 0 Z " fill="#B1EA17" transform="translate(447,223)"/>
<path d="M0 0 C3.519 1.569 5.789 4.238 8.284 7.081 C8.812 7.679 9.34 8.278 9.885 8.895 C10.914 10.076 11.936 11.264 12.95 12.459 C13.992 13.677 15.076 14.859 16.175 16.026 C21.886 23.083 19.846 34.282 19.018 42.729 C16.75 52.571 5.81 60.944 -1.716 67.018 C-2.046 66.853 -2.046 66.853 -3.716 66.018 C-3.716 65.358 -3.716 64.698 -3.716 64.018 C-4.401 64.035 -5.085 64.052 -5.791 64.07 C-12.895 64.244 -20 64.404 -27.105 64.555 C-29.759 64.614 -32.413 64.676 -35.067 64.742 C-38.874 64.836 -42.682 64.917 -46.49 64.995 C-47.682 65.027 -48.875 65.059 -50.104 65.092 C-51.205 65.113 -52.306 65.133 -53.44 65.154 C-53.926 65.165 -53.926 65.165 -56.388 65.221 C-58.716 65.018 -58.716 65.018 -60.716 63.018 C-59.341 61.518 -59.341 61.518 -57.716 60.018 C-57.056 60.018 -56.396 60.018 -55.716 60.018 C-55.716 59.358 -55.716 58.698 -55.716 58.018 C-54.094 56.308 -52.417 54.65 -50.716 53.018 C-49.771 52.057 -48.83 51.092 -47.892 50.124 C-46.937 49.151 -45.983 48.178 -45.029 47.206 C-44.543 46.704 -44.058 46.202 -43.558 45.684 C-42.315 44.424 -41.019 43.216 -39.716 42.018 C-39.056 42.018 -38.396 42.018 -37.716 42.018 C-37.51 41.482 -37.304 40.946 -37.091 40.393 C-35.455 37.567 -33.421 35.794 -30.958 33.678 C-29.716 32.018 -29.716 32.018 -29.997 29.816 C-29.573 25.593 -26.875 23.443 -23.986 20.589 C-23.398 19.994 -22.811 19.399 -22.205 18.787 C-20.962 17.535 -19.711 16.29 -18.455 15.051 C-16.533 13.148 -14.643 11.218 -12.753 9.284 C-11.541 8.071 -10.327 6.86 -9.111 5.651 C-8.546 5.071 -7.981 4.491 -7.399 3.893 C-3.413 0.023 -3.413 0.023 0 0 Z " fill="#9DA28C" transform="translate(295.716064453125,223.981689453125)"/>
<path d="M0 0 C3.518 1.57 5.785 4.24 8.282 7.081 C8.81 7.674 9.338 8.266 9.882 8.877 C16.956 16.934 19.282 20.353 19.282 32.018 C3.442 32.018 -12.398 32.018 -28.718 32.018 C-29.048 30.368 -29.378 28.718 -29.718 27.018 C-27.916 24.604 -26.218 22.676 -24.085 20.589 C-23.497 19.994 -22.908 19.399 -22.301 18.787 C-21.052 17.534 -19.796 16.289 -18.533 15.051 C-16.6 13.15 -14.702 11.22 -12.804 9.284 C-11.587 8.071 -10.369 6.86 -9.148 5.651 C-8.58 5.071 -8.012 4.491 -7.427 3.893 C-3.417 0.023 -3.417 0.023 0 0 Z " fill="#AFE415" transform="translate(295.71826171875,223.981689453125)"/>
<path d="M0 0 C136.62 0 273.24 0 414 0 C414 0.33 414 0.66 414 1 C277.38 1 140.76 1 0 1 C0 0.67 0 0.34 0 0 Z " fill="#161617" transform="translate(49,498)"/>
<path d="M0 0 C136.62 0 273.24 0 414 0 C414 0.33 414 0.66 414 1 C277.38 1 140.76 1 0 1 C0 0.67 0 0.34 0 0 Z " fill="#19191A" transform="translate(49,13)"/>
<path d="M0 0 C2 3 2 3 1.875 5.5 C0.794 8.589 -0.272 9.257 -3 11 C-11.938 17.875 -11.938 17.875 -14 22 C-7.467 22.099 -1.12 21.745 5.375 21.062 C6.263 20.975 7.151 20.888 8.066 20.799 C11.568 20.441 14.647 20.118 18 19 C20.404 19.243 22.8 19.565 25.188 19.938 C26.46 20.132 27.732 20.327 29.043 20.527 C30.019 20.683 30.995 20.839 32 21 C31.835 21.495 31.835 21.495 31 24 C14.17 24 -2.66 24 -20 24 C-20.33 23.01 -20.66 22.02 -21 21 C-20.34 21 -19.68 21 -19 21 C-19 20.34 -19 19.68 -19 19 C-17.378 17.29 -15.701 15.631 -14 14 C-13.055 13.039 -12.114 12.074 -11.176 11.105 C-10.221 10.133 -9.267 9.16 -8.312 8.188 C-7.827 7.685 -7.342 7.183 -6.842 6.666 C-5.599 5.406 -4.303 4.198 -3 3 C-2.34 3 -1.68 3 -1 3 C-0.67 2.01 -0.34 1.02 0 0 Z " fill="#A0B168" transform="translate(259,263)"/>
<path d="M0 0 C2 3 2 3 1.875 5.5 C0.794 8.589 -0.272 9.257 -3 11 C-12.414 18.241 -12.414 18.241 -14 23 C-16.31 22.67 -18.62 22.34 -21 22 C-20.34 21.67 -19.68 21.34 -19 21 C-19 20.34 -19 19.68 -19 19 C-17.378 17.29 -15.701 15.631 -14 14 C-13.055 13.039 -12.114 12.074 -11.176 11.105 C-10.221 10.133 -9.267 9.16 -8.312 8.188 C-7.827 7.685 -7.342 7.183 -6.842 6.666 C-5.599 5.406 -4.303 4.198 -3 3 C-2.34 3 -1.68 3 -1 3 C-0.67 2.01 -0.34 1.02 0 0 Z " fill="#9BB84E" transform="translate(259,263)"/>
<path d="M0 0 C1.708 1.634 2.935 2.869 4 5 C4 8.3 4 11.6 4 15 C-11.84 15 -27.68 15 -44 15 C-44.33 13.35 -44.66 11.7 -45 10 C-44.34 9.67 -43.68 9.34 -43 9 C-43 10.65 -43 12.3 -43 14 C-27.82 14 -12.64 14 3 14 C3 12.02 3 10.04 3 8 C2.01 7.67 1.02 7.34 0 7 C0 4.69 0 2.38 0 0 Z " fill="#9CBD2E" transform="translate(311,241)"/>
<path d="M0 0 C0.611 0.01 0.611 0.01 3.7 0.061 C5.038 0.088 6.375 0.115 7.712 0.143 C9.077 0.167 10.442 0.191 11.807 0.214 C15.401 0.277 18.994 0.346 22.588 0.417 C26.254 0.487 29.921 0.552 33.587 0.617 C40.783 0.746 47.978 0.882 55.173 1.022 C53.853 2.342 52.533 3.662 51.173 5.022 C50.513 4.692 49.853 4.362 49.173 4.022 C49.173 3.362 49.173 2.702 49.173 2.022 C48.489 2.039 47.804 2.056 47.099 2.073 C39.994 2.247 32.89 2.407 25.785 2.559 C23.131 2.617 20.477 2.68 17.823 2.745 C14.015 2.839 10.208 2.92 6.4 2.998 C5.804 3.014 5.804 3.014 2.786 3.096 C1.685 3.116 0.584 3.136 -0.551 3.157 C-1.037 3.168 -1.037 3.168 -3.498 3.224 C-5.827 3.022 -5.827 3.022 -7.827 1.022 C-5.11 -0.337 -3.04 -0.056 0 0 Z " fill="#949D83" transform="translate(242.82666015625,285.978271484375)"/>
<path d="M0 0 C4.455 0.165 4.455 0.165 27 1 C23.666 4.334 22.564 4.386 18.035 4.41 C17.658 4.404 17.658 4.404 15.75 4.375 C15.011 4.387 14.273 4.398 13.512 4.41 C8.299 4.383 4.661 3.33 0 1 C0 0.67 0 0.34 0 0 Z " fill="#BCEA1A" transform="translate(316,378)"/>
<path d="M0 0 C-0.33 0.66 -0.66 1.32 -1 2 C-1.99 2 -2.98 2 -4 2 C-4 2.66 -4 3.32 -4 4 C-14.525 6.439 -24.793 5.141 -35 2 C-31.99 1.066 -31.133 0.956 -28 2 C-25.261 2.071 -22.55 2.094 -19.812 2.062 C-19.438 2.06 -19.438 2.06 -17.541 2.049 C-15.694 2.037 -13.847 2.019 -12 2 C-12 1.67 -12 1.34 -12 1 C-7.959 0.366 -4.093 -0.124 0 0 Z " fill="#767675" transform="translate(198,378)"/>
<path d="M0 0 C1.98 0 3.96 0 6 0 C6 0.33 6 0.66 6 1 C4.02 1 2.04 1 0 1 C0 0.67 0 0.34 0 0 Z " fill="#141415" transform="translate(463,497)"/>
<path d="M0 0 C1.98 0 3.96 0 6 0 C6 0.33 6 0.66 6 1 C4.02 1 2.04 1 0 1 C0 0.67 0 0.34 0 0 Z " fill="#151516" transform="translate(43,497)"/>
<path d="M0 0 C1.98 0 3.96 0 6 0 C6 0.33 6 0.66 6 1 C4.02 1 2.04 1 0 1 C0 0.67 0 0.34 0 0 Z " fill="#171717" transform="translate(463,14)"/>
<path d="M0 0 C1.98 0 3.96 0 6 0 C6 0.33 6 0.66 6 1 C4.02 1 2.04 1 0 1 C0 0.67 0 0.34 0 0 Z " fill="#181819" transform="translate(43,14)"/>
<path d="M0 0 C3 1 3 1 3 1 Z " fill="#141415" transform="translate(469,496)"/>
<path d="M0 0 C3 1 3 1 3 1 Z " fill="#151516" transform="translate(40,496)"/>
<path d="M0 0 C3 1 3 1 3 1 Z " fill="#141415" transform="translate(472,495)"/>
<path d="M0 0 C3 1 3 1 3 1 Z " fill="#151516" transform="translate(37,495)"/>
<path d="" fill="#141415" transform="translate(0,0)"/>
<path d="" fill="#161616" transform="translate(0,0)"/>
<path d="" fill="#161617" transform="translate(0,0)"/>
<path d="" fill="#181819" transform="translate(0,0)"/>
<path d="M0 0 C3 1 3 1 3 1 Z " fill="#171717" transform="translate(472,16)"/>
<path d="M0 0 C3 1 3 1 3 1 Z " fill="#181819" transform="translate(37,16)"/>
<path d="M0 0 C3 1 3 1 3 1 Z " fill="#171717" transform="translate(469,15)"/>
<path d="M0 0 C3 1 3 1 3 1 Z " fill="#181819" transform="translate(40,15)"/>
<path d="M0 0 C2 1 2 1 2 1 Z " fill="#141415" transform="translate(475,494)"/>
<path d="M0 0 C2 1 2 1 2 1 Z " fill="#151516" transform="translate(35,494)"/>
<path d="M0 0 C2 1 2 1 2 1 Z " fill="#141415" transform="translate(477,493)"/>
<path d="M0 0 C2 1 2 1 2 1 Z " fill="#151516" transform="translate(33,493)"/>
<path d="M0 0 C2 1 2 1 2 1 Z " fill="#141415" transform="translate(481,490)"/>
<path d="M0 0 C2 1 2 1 2 1 Z " fill="#151516" transform="translate(29,490)"/>
<path d="M0 0 C2 1 2 1 2 1 Z " fill="#161617" transform="translate(481,21)"/>
<path d="M0 0 C2 1 2 1 2 1 Z " fill="#181819" transform="translate(29,21)"/>
<path d="M0 0 C2 1 2 1 2 1 Z " fill="#171717" transform="translate(477,18)"/>
<path d="M0 0 C2 1 2 1 2 1 Z " fill="#181819" transform="translate(33,18)"/>
<path d="M0 0 C2 1 2 1 2 1 Z " fill="#171717" transform="translate(475,17)"/>
<path d="M0 0 C2 1 2 1 2 1 Z " fill="#181819" transform="translate(35,17)"/>
<path d="" fill="#141415" transform="translate(0,0)"/>
<path d="" fill="#151516" transform="translate(0,0)"/>
<path d="" fill="#141415" transform="translate(0,0)"/>
<path d="" fill="#151516" transform="translate(0,0)"/>
<path d="" fill="#141415" transform="translate(0,0)"/>
<path d="" fill="#151516" transform="translate(0,0)"/>
<path d="" fill="#141415" transform="translate(0,0)"/>
<path d="" fill="#151516" transform="translate(0,0)"/>
<path d="" fill="#141415" transform="translate(0,0)"/>
<path d="" fill="#151516" transform="translate(0,0)"/>
<path d="" fill="#141415" transform="translate(0,0)"/>
<path d="" fill="#151516" transform="translate(0,0)"/>
<path d="" fill="#141415" transform="translate(0,0)"/>
<path d="" fill="#151516" transform="translate(0,0)"/>
<path d="" fill="#141415" transform="translate(0,0)"/>
<path d="" fill="#151516" transform="translate(0,0)"/>
<path d="" fill="#141415" transform="translate(0,0)"/>
<path d="" fill="#161616" transform="translate(0,0)"/>
<path d="" fill="#161617" transform="translate(0,0)"/>
<path d="" fill="#181819" transform="translate(0,0)"/>
<path d="" fill="#161617" transform="translate(0,0)"/>
<path d="" fill="#181819" transform="translate(0,0)"/>
<path d="" fill="#161617" transform="translate(0,0)"/>
<path d="" fill="#181819" transform="translate(0,0)"/>
<path d="" fill="#161617" transform="translate(0,0)"/>
<path d="" fill="#181819" transform="translate(0,0)"/>
<path d="" fill="#161617" transform="translate(0,0)"/>
<path d="" fill="#181819" transform="translate(0,0)"/>
<path d="" fill="#161617" transform="translate(0,0)"/>
<path d="" fill="#181819" transform="translate(0,0)"/>
<path d="" fill="#161617" transform="translate(0,0)"/>
<path d="" fill="#181819" transform="translate(0,0)"/>
<path d="" fill="#171717" transform="translate(0,0)"/>
<path d="" fill="#181819" transform="translate(0,0)"/>
<path d="" fill="#171717" transform="translate(0,0)"/>
<path d="" fill="#181819" transform="translate(0,0)"/>
</svg>
